<svg xmlns="http://www.w3.org/2000/svg"  viewBox="0 0 48 48" width="48px" height="48px" fill-rule="evenodd" clip-rule="evenodd" baseProfile="basic"><linearGradient id="UCnCPfF7FjiQcYL7iQTgBa" x1="-137.245" x2="-110.741" y1="-156.5" y2="-129.996" gradientTransform="translate(134.615 138.123)" gradientUnits="userSpaceOnUse"><stop offset="0" stop-color="#fff"/><stop offset="1" stop-color="#1359bf"/></linearGradient><path fill="url(#UCnCPfF7FjiQcYL7iQTgBa)" fill-rule="evenodd" d="M17.998,12.006	V4.493c0-0.827,0.672-1.5,1.5-1.5h8.997c0.827,0,1.5,0.673,1.5,1.5v7.513c0,0.828-0.673,1.5-1.5,1.5c-0.828,0-1.5-0.672-1.5-1.5	V5.993h-5.997v6.013c0,0.828-0.673,1.5-1.5,1.5C18.67,13.506,17.998,12.834,17.998,12.006z" clip-rule="evenodd"/><linearGradient id="UCnCPfF7FjiQcYL7iQTgBb" x1="-124.709" x2="-112.937" y1="-158.075" y2="-146.303" gradientTransform="translate(140.641 164.98)" gradientUnits="userSpaceOnUse"><stop offset="0" stop-color="#f44f5b"/><stop offset="1" stop-color="#e5202e"/></linearGradient><path fill="url(#UCnCPfF7FjiQcYL7iQTgBb)" d="M24.001,26.001l-9.999-6.001l-2.804-6.803	c0.464-1.28,1.692-2.197,3.132-2.197h19.343c1.44,0,2.668,0.917,3.131,2.199l-2.801,6.801L24.001,26.001z"/><linearGradient id="UCnCPfF7FjiQcYL7iQTgBc" x1="-133.241" x2="-133.241" y1="-139.502" y2="-166.502" gradientTransform="translate(150.743 207.501)" gradientUnits="userSpaceOnUse"><stop offset="0" stop-color="#fff"/><stop offset="1" stop-color="#1359bf"/></linearGradient><path fill="url(#UCnCPfF7FjiQcYL7iQTgBc)" fill-rule="evenodd" d="M14.002,41.502	v-4.015c0-1.931,1.568-3.5,3.5-3.5c1.931,0,3.5,1.569,3.5,3.5v4.015c0,1.932-1.569,3.5-3.5,3.5	C15.57,45.002,14.002,43.434,14.002,41.502z" clip-rule="evenodd"/><linearGradient id="UCnCPfF7FjiQcYL7iQTgBd" x1="-120.241" x2="-120.241" y1="-139.502" y2="-166.502" gradientTransform="translate(150.743 207.501)" gradientUnits="userSpaceOnUse"><stop offset="0" stop-color="#fff"/><stop offset="1" stop-color="#1359bf"/></linearGradient><path fill="url(#UCnCPfF7FjiQcYL7iQTgBd)" fill-rule="evenodd" d="M27.002,41.502	v-4.015c0-1.931,1.568-3.5,3.5-3.5c1.931,0,3.5,1.569,3.5,3.5v4.015c0,1.932-1.569,3.5-3.5,3.5	C28.57,45.002,27.002,43.434,27.002,41.502z" clip-rule="evenodd"/><linearGradient id="UCnCPfF7FjiQcYL7iQTgBe" x1="-131.391" x2="-117.847" y1="-147.615" y2="-134.071" gradientTransform="translate(143.854 173.102)" gradientUnits="userSpaceOnUse"><stop offset="0" stop-color="#33c481"/><stop offset="1" stop-color="#21a366"/></linearGradient><path fill="url(#UCnCPfF7FjiQcYL7iQTgBe)" d="M11.198,38.803l3.804-6.804l8.999-5.999l9.001,4.999	l3.803,7.804c-0.464,1.281-1.692,2.197-3.132,2.197H14.33C12.889,41.001,11.661,40.085,11.198,38.803z"/><linearGradient id="UCnCPfF7FjiQcYL7iQTgBf" x1="-132.054" x2="-122.814" y1="-148.807" y2="-139.567" gradientTransform="translate(139.916 171.471)" gradientUnits="userSpaceOnUse"><stop offset="0" stop-color="#ffd647"/><stop offset="1" stop-color="#f5bf00"/></linearGradient><path fill="url(#UCnCPfF7FjiQcYL7iQTgBf)" d="M11.001,37.671V14.329	c0-0.397,0.069-0.779,0.197-1.132l12.803,12.804L11.198,38.803C11.07,38.45,11.001,38.069,11.001,37.671z"/><linearGradient id="UCnCPfF7FjiQcYL7iQTgBg" x1="-125.506" x2="-89.835" y1="-164.504" y2="-128.833" gradientTransform="translate(127.875 156.07)" gradientUnits="userSpaceOnUse"><stop offset="0" stop-color="#fff"/><stop offset="1" stop-color="#1899e2"/></linearGradient><path fill="url(#UCnCPfF7FjiQcYL7iQTgBg)" fill-rule="evenodd" d="M36.805,38.803	L24.001,26.001l12.803-12.803c0.128,0.353,0.199,0.735,0.199,1.131v23.343C37.002,38.069,36.931,38.45,36.805,38.803z" clip-rule="evenodd"/><linearGradient id="UCnCPfF7FjiQcYL7iQTgBh" x1="-131.906" x2="-96.235" y1="-158.103" y2="-122.433" gradientTransform="translate(127.875 156.07)" gradientUnits="userSpaceOnUse"><stop offset="0" stop-color="#fff"/><stop offset="1" stop-color="#1899e2"/></linearGradient><path fill="url(#UCnCPfF7FjiQcYL7iQTgBh)" fill-rule="evenodd" d="M24.002,19.999	c3.311,0,6,2.689,6,6s-2.689,6-6,6s-6-2.689-6-6S20.691,19.999,24.002,19.999z" clip-rule="evenodd"/><path fill="#fff" fill-rule="evenodd" d="M15.998,25.999	c0-4.417,3.585-8.004,8.004-8.004c2.208,0,4.209,0.897,5.657,2.347l-2.121,2.121c-0.905-0.907-2.156-1.468-3.536-1.468	c-2.761,0-5.004,2.244-5.004,5.004c0,2.761,2.243,5.004,5.004,5.004c2.76,0,5.004-2.243,5.004-5.004c0-0.711-0.149-1.388-0.419-2	h3.165c0.165,0.64,0.253,1.311,0.253,2c0,4.419-3.587,8.004-8.004,8.004C19.583,34.003,15.998,30.418,15.998,25.999z" clip-rule="evenodd"/><path fill="#fff" fill-rule="evenodd" d="M24.001,23.999v3.001	h5.001l1-1.001l-1-2H24.001z" clip-rule="evenodd"/></svg>