<svg xmlns="http://www.w3.org/2000/svg"  viewBox="0 0 48 48" width="48px" height="48px" baseProfile="basic"><path fill="#4caf50" d="M24,20v8L5.986,27.972C3.785,27.972,2,26.188,2,23.986v0C2,21.785,3.785,20,5.986,20H24z"/><path fill="#fbc02d" d="M11.529,10.4c-1.101-1.907-0.448-4.344,1.459-5.445l0,0c1.907-1.101,4.344-0.448,5.445,1.459	L27.464,22l-6.928,4L11.529,10.4z"/><path fill="#1e88e5" d="M42.014,27.972C44.215,27.969,46,26.188,46,23.986S44.215,20,42.014,20H30.916l5.531-9.614	c1.098-1.908,0.448-4.344-1.459-5.445C33.081,3.84,30.644,4.493,29.543,6.4l-5.541,9.597l-3.936,10.014l10.864,1.979L42.014,27.972z"/><path fill="#e53935" d="M35.01,43.05c-1.9,1.1-4.34,0.44-5.44-1.46l-5.56-9.6l-5.55,9.61c-1.1,1.91-3.54,2.56-5.45,1.46	c-1.9-1.1-2.55-3.54-1.46-5.45L17.08,28h13.85l5.54,9.6C37.57,39.51,36.92,41.94,35.01,43.05z"/><polygon fill="#1565c0" points="30.93,28 17.08,28 23.99,15.99"/></svg>