<svg xmlns="http://www.w3.org/2000/svg"  viewBox="0 0 48 48" width="48px" height="48px" baseProfile="basic"><linearGradient id="pB8WrnS6r1h-Q7MAHzW6Za" x1="3" x2="28" y1="16.5" y2="16.5" gradientUnits="userSpaceOnUse"><stop offset="0" stop-color="#0052cc"/><stop offset=".044" stop-color="#0255cf"/><stop offset=".464" stop-color="#1c77f2"/><stop offset=".732" stop-color="#2684ff"/></linearGradient><circle cx="15.5" cy="16.5" r="12.5" fill="url(#pB8WrnS6r1h-Q7MAHzW6Za)"/><linearGradient id="pB8WrnS6r1h-Q7MAHzW6Zb" x1="39" x2="44" y1="17.5" y2="17.5" gradientUnits="userSpaceOnUse"><stop offset="0" stop-color="#33c481"/><stop offset="1" stop-color="#21a366"/></linearGradient><path fill="url(#pB8WrnS6r1h-Q7MAHzW6Zb)" d="M44,17.5c0,1.381-1.12,2.5-2.5,2.5S39,18.881,39,17.5s1.12-2.5,2.5-2.5S44,16.119,44,17.5z"/><linearGradient id="pB8WrnS6r1h-Q7MAHzW6Zc" x1="29" x2="39" y1="25" y2="25" gradientUnits="userSpaceOnUse"><stop offset="0" stop-color="#f44f5a"/><stop offset=".443" stop-color="#ee3d4a"/><stop offset="1" stop-color="#e52030"/></linearGradient><path fill="url(#pB8WrnS6r1h-Q7MAHzW6Zc)" d="M39,25c0,2.761-2.238,5-5,5s-5-2.239-5-5s2.238-5,5-5S39,22.239,39,25z"/><linearGradient id="pB8WrnS6r1h-Q7MAHzW6Zd" x1="28" x2="40" y1="38" y2="38" gradientUnits="userSpaceOnUse"><stop offset="0" stop-color="#ffb700"/><stop offset=".559" stop-color="#fecc00"/><stop offset="1" stop-color="#fede00"/></linearGradient><path fill="url(#pB8WrnS6r1h-Q7MAHzW6Zd)" d="M40,38c0,3.314-2.686,6-6,6s-6-2.686-6-6s2.686-6,6-6S40,34.687,40,38z"/></svg>