<?xml version="1.0" encoding="UTF-8"?>
<svg xmlns="http://www.w3.org/2000/svg" xmlns:xlink="http://www.w3.org/1999/xlink" width="48px" height="48px" viewBox="0 0 48 48" version="1.1">
<g id="surface1">
<path style=" stroke:none;fill-rule:nonzero;fill:rgb(0%,51.372552%,17.647059%);fill-opacity:1;" d="M 27 24 L 31.265625 28.875 L 37 32.539062 L 38 24.03125 L 37 15.710938 L 31.15625 18.933594 Z M 27 24 "/>
<path style=" stroke:none;fill-rule:nonzero;fill:rgb(0%,40.000001%,85.490197%);fill-opacity:1;" d="M 2.25 31.75 L 2.25 39 C 2.25 40.65625 3.59375 42 5.25 42 L 12.5 42 L 14 36.519531 L 12.5 31.75 L 7.523438 30.25 Z M 2.25 31.75 "/>
<path style=" stroke:none;fill-rule:nonzero;fill:rgb(91.37255%,25.882354%,20.784314%);fill-opacity:1;" d="M 12.5 6 L 2.25 16.25 L 7.523438 17.75 L 12.5 16.25 L 13.976562 11.542969 Z M 12.5 6 "/>
<path style=" stroke:none;fill-rule:nonzero;fill:rgb(14.901961%,51.764709%,98.823529%);fill-opacity:1;" d="M 12.5 16.25 L 2.25 16.25 L 2.25 31.75 L 12.5 31.75 Z M 12.5 16.25 "/>
<path style=" stroke:none;fill-rule:nonzero;fill:rgb(0%,67.450982%,27.843139%);fill-opacity:1;" d="M 43.546875 10.339844 L 37 15.710938 L 37 32.539062 L 43.574219 37.933594 C 44.558594 38.703125 46 38 46 36.75 L 46 11.5 C 46 10.234375 44.527344 9.539062 43.546875 10.339844 Z M 43.546875 10.339844 "/>
<path style=" stroke:none;fill-rule:nonzero;fill:rgb(0%,67.450982%,27.843139%);fill-opacity:1;" d="M 27 24 L 27 31.75 L 12.5 31.75 L 12.5 42 L 34 42 C 35.65625 42 37 40.65625 37 39 L 37 32.539062 Z M 27 24 "/>
<path style=" stroke:none;fill-rule:nonzero;fill:rgb(100%,72.941178%,0%);fill-opacity:1;" d="M 34 6 L 12.5 6 L 12.5 16.25 L 27 16.25 L 27 24 L 37 15.710938 L 37 9 C 37 7.34375 35.65625 6 34 6 Z M 34 6 "/>
</g>
</svg>
